<svg viewBox="0 0 240 240" xmlns="http://www.w3.org/2000/svg" fill='black' fill-rule="evenodd" clip-rule="evenodd" stroke-linejoin="round" stroke-miterlimit="2">
  <path d="M119.589 0c66.003 0 119.589 53.586 119.589 119.589s-53.586 119.589-119.589 119.589S0 185.592 0 119.589 53.586 0 119.589 0zm0 19.837c55.054 0 99.752 44.697 99.752 99.752 0 55.054-44.698 99.752-99.752 99.752-55.055 0-99.752-44.698-99.752-99.752 0-55.055 44.697-99.752 99.752-99.752z"/>
  <path d="M133.01 19.837h43.797v117.747h48.813l-6.279 33.268h-42.534v48.489h-40.075v-48.489H47.787v-33.268L133.01 19.837z"/>
  <path d="M137.05 76.528v57.239h-34.922l34.922-57.239z" fill="white"/>
</svg>